<?xml version="1.0" encoding="utf-8"?>
<!-- Generator: Adobe Illustrator 17.0.0, SVG Export Plug-In . SVG Version: 6.00 Build 0)  -->
<!DOCTYPE svg PUBLIC "-//W3C//DTD SVG 1.1//EN" "http://www.w3.org/Graphics/SVG/1.1/DTD/svg11.dtd">
<svg version="1.1" id="Layer_1" xmlns="http://www.w3.org/2000/svg" xmlns:xlink="http://www.w3.org/1999/xlink" x="0px" y="0px"
	 width="100px" height="100px" viewBox="0 0 504 504" enable-background="new 0 0 504 504" xml:space="preserve">
<g>
	<path fill="#395CAA" d="M326.586,72.137H185.419c-3.712,0.994-12.489,7.833-12.489,13.312v35.512h168.397V85.45
		C341.327,80.537,331.039,73.096,326.586,72.137z"/>
	<path fill="#395CAA" d="M252,0C112.824,0,0,112.824,0,252s112.824,252,252,252s252-112.824,252-252S391.176,0,252,0z
		 M450.496,368.958c0,7.711-6.251,13.962-13.962,13.962H68.459c-7.711,0-13.962-6.251-13.962-13.962V213.24l172.456,49.712v17.283
		h51.178V262.82l172.365-49.866V368.958z M251.501,241.029L54.497,187.509v-52.586c0-7.711,6.251-13.962,13.962-13.962h80.471V85.45
		c0-21.556,23.661-37.312,35.977-37.312h142.105c12.779,0,38.315,16.131,38.315,37.312v35.512h71.207
		c7.711,0,13.962,6.251,13.962,13.962v52.315L251.501,241.029z"/>
</g>
</svg>
